<svg width="217" height="64" viewBox="0 0 217 64" fill="none" xmlns="http://www.w3.org/2000/svg">
<g clip-path="url(#clip0_310_1748)">
<path d="M209.28 64H7.60143C3.41092 64 0 60.5952 0 56.4272V7.5616C0 3.392 3.41092 0 7.60143 0H209.28C213.469 0 217 3.392 217 7.5616V56.4272C217 60.5952 213.469 64 209.28 64Z" fill="black"/>
<path d="M215.444 56.4291C215.444 59.8147 212.689 62.5571 209.281 62.5571H7.6015C4.19541 62.5571 1.43066 59.8147 1.43066 56.4291V7.56032C1.43066 4.17632 4.19541 1.42432 7.6015 1.42432H209.28C212.689 1.42432 215.442 4.17632 215.442 7.56032L215.444 56.4291Z" fill="black"/>
<path d="M48.4277 31.6539C48.3811 26.4971 52.6696 23.9883 52.8657 23.8715C50.437 20.3467 46.6724 19.8651 45.3495 19.8267C42.1877 19.4955 39.1208 21.7099 37.5102 21.7099C35.8674 21.7099 33.3872 19.8587 30.7141 19.9131C27.2742 19.9659 24.0562 21.9483 22.2912 25.0267C18.6489 31.3035 21.3654 40.5275 24.8551 45.6011C26.6007 48.0859 28.6405 50.8603 31.3104 50.7627C33.9224 50.6555 34.8981 49.1051 38.0503 49.1051C41.1735 49.1051 42.0897 50.7627 44.8126 50.7003C47.616 50.6555 49.3809 48.2043 51.0654 45.6971C53.0827 42.8491 53.8929 40.0443 53.925 39.9003C53.8591 39.8779 48.4807 37.8347 48.4277 31.6539Z" fill="white"/>
<path d="M43.2845 16.4892C44.6893 14.7404 45.6506 12.3612 45.3837 9.94678C43.3504 10.0364 40.8074 11.3468 39.3431 13.0572C38.0475 14.5644 36.8902 17.0348 37.1892 19.358C39.4733 19.5276 41.8185 18.2108 43.2845 16.4892Z" fill="white"/>
<path d="M86.2296 50.4061H82.5792L80.5796 44.1517H73.6292L71.7244 50.4061H68.1704L75.0565 29.1133H79.3097L86.2296 50.4061ZM79.9768 41.5277L78.1685 35.9677C77.9772 35.3997 77.6188 34.0621 77.0899 31.9565H77.0256C76.815 32.8621 76.4759 34.1997 76.0097 35.9677L74.2336 41.5277H79.9768Z" fill="white"/>
<path d="M103.939 42.5405C103.939 45.1517 103.23 47.2157 101.812 48.7309C100.542 50.0797 98.9652 50.7533 97.0829 50.7533C95.0512 50.7533 93.5916 50.0269 92.7027 48.5741H92.6384V56.6621H89.2115V40.1069C89.2115 38.4653 89.1681 36.7805 89.0845 35.0525H92.0984L92.2896 37.4861H92.3539C93.4968 35.6525 95.2312 34.7373 97.5587 34.7373C99.3783 34.7373 100.897 35.4525 102.113 36.8845C103.331 38.3181 103.939 40.2029 103.939 42.5405ZM100.447 42.6653C100.447 41.1709 100.11 39.9389 99.4314 38.9693C98.6903 37.9581 97.6953 37.4525 96.448 37.4525C95.6025 37.4525 94.8342 37.7341 94.1478 38.2893C93.4598 38.8493 93.0098 39.5805 92.7992 40.4861C92.6931 40.9085 92.6401 41.2541 92.6401 41.5261V44.0861C92.6401 45.2029 92.984 46.1453 93.672 46.9149C94.36 47.6845 95.2537 48.0685 96.3532 48.0685C97.6439 48.0685 98.6485 47.5725 99.3671 46.5837C100.087 45.5933 100.447 44.2877 100.447 42.6653Z" fill="white"/>
<path d="M121.679 42.5405C121.679 45.1517 120.97 47.2157 119.551 48.7309C118.283 50.0797 116.706 50.7533 114.824 50.7533C112.792 50.7533 111.332 50.0269 110.445 48.5741H110.381V56.6621H106.954V40.1069C106.954 38.4653 106.91 36.7805 106.827 35.0525H109.841L110.032 37.4861H110.096C111.237 35.6525 112.972 34.7373 115.301 34.7373C117.119 34.7373 118.638 35.4525 119.856 36.8845C121.07 38.3181 121.679 40.2029 121.679 42.5405ZM118.188 42.6653C118.188 41.1709 117.849 39.9389 117.17 38.9693C116.429 37.9581 115.438 37.4525 114.189 37.4525C113.341 37.4525 112.575 37.7341 111.887 38.2893C111.199 38.8493 110.75 39.5805 110.54 40.4861C110.435 40.9085 110.381 41.2541 110.381 41.5261V44.0861C110.381 45.2029 110.725 46.1453 111.409 46.9149C112.097 47.6829 112.991 48.0685 114.094 48.0685C115.385 48.0685 116.389 47.5725 117.108 46.5837C117.828 45.5933 118.188 44.2877 118.188 42.6653Z" fill="white"/>
<path d="M141.514 44.4354C141.514 46.2466 140.883 47.7202 139.614 48.8578C138.221 50.101 136.281 50.7218 133.788 50.7218C131.486 50.7218 129.64 50.2802 128.244 49.3954L129.038 46.5522C130.542 47.4578 132.193 47.9122 133.992 47.9122C135.282 47.9122 136.287 47.621 137.009 47.0418C137.727 46.4626 138.086 45.685 138.086 44.7154C138.086 43.8514 137.79 43.1234 137.197 42.533C136.607 41.9426 135.622 41.3938 134.246 40.8866C130.5 39.4962 128.629 37.4594 128.629 34.781C128.629 33.0306 129.285 31.5954 130.599 30.4786C131.907 29.3602 133.653 28.8018 135.835 28.8018C137.782 28.8018 139.399 29.1394 140.69 29.813L139.833 32.5938C138.627 31.941 137.264 31.6146 135.739 31.6146C134.533 31.6146 133.592 31.9106 132.916 32.4994C132.346 33.0258 132.06 33.6674 132.06 34.4274C132.06 35.269 132.386 35.965 133.042 36.5122C133.612 37.0178 134.649 37.565 136.154 38.1554C137.994 38.893 139.346 39.7554 140.216 40.7442C141.082 41.7298 141.514 42.9634 141.514 44.4354Z" fill="white"/>
<path d="M152.845 37.6131H149.068V45.0675C149.068 46.9635 149.733 47.9107 151.068 47.9107C151.68 47.9107 152.188 47.8579 152.59 47.7523L152.685 50.3427C152.009 50.5939 151.121 50.7203 150.02 50.7203C148.666 50.7203 147.608 50.3091 146.845 49.4883C146.085 48.6659 145.702 47.2867 145.702 45.3491V37.6099H143.452V35.0499H145.702V32.2387L149.068 31.2275V35.0499H152.845V37.6131Z" fill="white"/>
<path d="M169.888 42.6033C169.888 44.9633 169.21 46.9009 167.857 48.4161C166.437 49.9761 164.553 50.7537 162.205 50.7537C159.942 50.7537 158.14 50.0065 156.796 48.5121C155.452 47.0177 154.78 45.1313 154.78 42.8577C154.78 40.4785 155.471 38.5297 156.859 37.0145C158.243 35.4977 160.11 34.7393 162.459 34.7393C164.722 34.7393 166.543 35.4865 167.918 36.9825C169.232 38.4337 169.888 40.3073 169.888 42.6033ZM166.333 42.7137C166.333 41.2977 166.029 40.0833 165.413 39.0705C164.695 37.8449 163.668 37.2337 162.337 37.2337C160.959 37.2337 159.913 37.8465 159.194 39.0705C158.579 40.0849 158.275 41.3185 158.275 42.7777C158.275 44.1937 158.579 45.4081 159.194 46.4193C159.935 47.6449 160.97 48.2561 162.306 48.2561C163.615 48.2561 164.642 47.6321 165.383 46.3873C166.014 45.3553 166.333 44.1281 166.333 42.7137Z" fill="white"/>
<path d="M181.028 38.0525C180.689 37.9901 180.327 37.9581 179.948 37.9581C178.743 37.9581 177.81 38.4109 177.154 39.3181C176.584 40.1181 176.298 41.1293 176.298 42.3501V50.4061H172.872L172.904 39.8877C172.904 38.1181 172.861 36.5069 172.776 35.0541H175.761L175.886 37.9917H175.981C176.343 36.9821 176.913 36.1693 177.695 35.5597C178.458 35.0109 179.283 34.7373 180.172 34.7373C180.488 34.7373 180.774 34.7597 181.028 34.7997V38.0525Z" fill="white"/>
<path d="M196.355 42.0029C196.355 42.6141 196.315 43.1293 196.23 43.5501H185.949C185.989 45.0669 186.485 46.2269 187.44 47.0269C188.307 47.7421 189.427 48.1005 190.803 48.1005C192.325 48.1005 193.714 47.8589 194.963 47.3741L195.5 49.7421C194.04 50.3757 192.317 50.6909 190.329 50.6909C187.937 50.6909 186.06 49.9901 184.693 48.5901C183.33 47.1901 182.647 45.3101 182.647 42.9517C182.647 40.6365 183.282 38.7085 184.553 37.1709C185.884 35.5293 187.683 34.7085 189.946 34.7085C192.169 34.7085 193.852 35.5293 194.995 37.1709C195.9 38.4749 196.355 40.0877 196.355 42.0029ZM193.087 41.1181C193.11 40.1069 192.886 39.2333 192.422 38.4957C191.828 37.5469 190.917 37.0733 189.691 37.0733C188.57 37.0733 187.659 37.5357 186.963 38.4637C186.392 39.2013 186.053 40.0861 185.949 41.1165L193.087 41.1181Z" fill="white"/>
<path d="M78.8438 16.0149C78.8438 17.8981 78.2764 19.3157 77.1431 20.2677C76.0935 21.1461 74.6018 21.5861 72.6697 21.5861C71.7117 21.5861 70.8919 21.5445 70.2056 21.4613V11.1717C71.1009 11.0277 72.0653 10.9541 73.1069 10.9541C74.9474 10.9541 76.3346 11.3525 77.2701 12.1493C78.3182 13.0501 78.8438 14.3381 78.8438 16.0149ZM77.0676 16.0613C77.0676 14.8405 76.7429 13.9045 76.0935 13.2517C75.4441 12.6005 74.4957 12.2741 73.2468 12.2741C72.7163 12.2741 72.2647 12.3093 71.8901 12.3829V20.2053C72.0975 20.2373 72.4768 20.2517 73.0282 20.2517C74.3173 20.2517 75.3123 19.8949 76.0131 19.1813C76.714 18.4677 77.0676 17.4277 77.0676 16.0613Z" fill="white"/>
<path d="M88.2612 17.6593C88.2612 18.8193 87.9285 19.7697 87.263 20.5153C86.5654 21.2817 85.6412 21.6641 84.4871 21.6641C83.3747 21.6641 82.489 21.2977 81.8284 20.5617C81.1694 19.8273 80.8398 18.9009 80.8398 17.7841C80.8398 16.6161 81.179 15.6577 81.8605 14.9137C82.5421 14.1697 83.4583 13.7969 84.6124 13.7969C85.7248 13.7969 86.6185 14.1633 87.2952 14.8977C87.9382 15.6113 88.2612 16.5329 88.2612 17.6593ZM86.514 17.7137C86.514 17.0177 86.3629 16.4209 86.0623 15.9233C85.7087 15.3217 85.2056 15.0209 84.5513 15.0209C83.8746 15.0209 83.3603 15.3217 83.0066 15.9233C82.7044 16.4209 82.5549 17.0273 82.5549 17.7441C82.5549 18.4401 82.706 19.0369 83.0066 19.5345C83.3715 20.1361 83.8795 20.4369 84.5353 20.4369C85.1782 20.4369 85.683 20.1313 86.0462 19.5185C86.3581 19.0113 86.514 18.4097 86.514 17.7137Z" fill="white"/>
<path d="M100.89 13.9507L98.5188 21.4931H96.9757L95.9936 18.2179C95.7444 17.4003 95.5419 16.5875 95.3844 15.7811H95.3538C95.2075 16.6099 95.005 17.4211 94.7446 18.2179L93.7014 21.4931H92.1406L89.9111 13.9507H91.6423L92.4991 17.5363C92.7064 18.3843 92.8768 19.1923 93.0134 19.9571H93.044C93.1693 19.3267 93.3767 18.5235 93.6692 17.5523L94.7446 13.9523H96.1173L97.1477 17.4755C97.3968 18.3347 97.5994 19.1619 97.7553 19.9587H97.8019C97.916 19.1827 98.088 18.3555 98.3163 17.4755L99.2357 13.9523H100.89V13.9507Z" fill="white"/>
<path d="M109.622 21.4928H107.938V17.1728C107.938 15.8416 107.43 15.176 106.411 15.176C105.911 15.176 105.507 15.3584 105.194 15.7248C104.884 16.0912 104.726 16.5232 104.726 17.0176V21.4912H103.042V16.1056C103.042 15.4432 103.021 14.7248 102.98 13.9472H104.461L104.54 15.1264H104.586C104.782 14.76 105.075 14.4576 105.459 14.216C105.916 13.9344 106.427 13.792 106.986 13.792C107.693 13.792 108.282 14.0192 108.749 14.4752C109.331 15.0336 109.622 15.8672 109.622 16.9744V21.4928Z" fill="white"/>
<path d="M114.268 21.4929H112.585V10.4897H114.268V21.4929Z" fill="white"/>
<path d="M124.186 17.6593C124.186 18.8193 123.853 19.7697 123.187 20.5153C122.49 21.2817 121.564 21.6641 120.411 21.6641C119.297 21.6641 118.412 21.2977 117.753 20.5617C117.094 19.8273 116.764 18.9009 116.764 17.7841C116.764 16.6161 117.103 15.6577 117.785 14.9137C118.466 14.1697 119.383 13.7969 120.535 13.7969C121.649 13.7969 122.541 14.1633 123.219 14.8977C123.862 15.6113 124.186 16.5329 124.186 17.6593ZM122.437 17.7137C122.437 17.0177 122.286 16.4209 121.985 15.9233C121.633 15.3217 121.128 15.0209 120.476 15.0209C119.797 15.0209 119.283 15.3217 118.931 15.9233C118.629 16.4209 118.479 17.0273 118.479 17.7441C118.479 18.4401 118.63 19.0369 118.931 19.5345C119.296 20.1361 119.804 20.4369 120.46 20.4369C121.103 20.4369 121.606 20.1313 121.969 19.5185C122.282 19.0113 122.437 18.4097 122.437 17.7137Z" fill="white"/>
<path d="M132.338 21.4929H130.825L130.7 20.6241H130.653C130.136 21.3169 129.398 21.6641 128.44 21.6641C127.725 21.6641 127.146 21.4353 126.71 20.9809C126.315 20.5681 126.117 20.0545 126.117 19.4449C126.117 18.5233 126.503 17.8209 127.279 17.3345C128.054 16.8481 129.144 16.6097 130.547 16.6209V16.4801C130.547 15.4865 130.023 14.9905 128.974 14.9905C128.226 14.9905 127.567 15.1777 126.998 15.5489L126.656 14.4481C127.36 14.0145 128.229 13.7969 129.255 13.7969C131.235 13.7969 132.229 14.8369 132.229 16.9169V19.6945C132.229 20.4481 132.266 21.0481 132.338 21.4929ZM130.589 18.9009V17.7377C128.731 17.7057 127.802 18.2129 127.802 19.2577C127.802 19.6513 127.908 19.9457 128.125 20.1425C128.342 20.3393 128.618 20.4369 128.948 20.4369C129.318 20.4369 129.663 20.3201 129.978 20.0881C130.295 19.8545 130.489 19.5585 130.562 19.1953C130.579 19.1137 130.589 19.0145 130.589 18.9009Z" fill="white"/>
<path d="M141.911 21.4929H140.416L140.337 20.2817H140.29C139.813 21.2033 139 21.6641 137.857 21.6641C136.944 21.6641 136.183 21.3073 135.581 20.5937C134.978 19.8801 134.677 18.9537 134.677 17.8161C134.677 16.5953 135.004 15.6065 135.659 14.8513C136.294 14.1473 137.072 13.7953 137.998 13.7953C139.016 13.7953 139.728 14.1361 140.133 14.8193H140.165V10.4897H141.851V19.4609C141.851 20.1953 141.87 20.8721 141.911 21.4929ZM140.165 18.3121V17.0545C140.165 16.8369 140.149 16.6609 140.118 16.5265C140.023 16.1233 139.819 15.7841 139.509 15.5105C139.196 15.2369 138.818 15.0993 138.382 15.0993C137.754 15.0993 137.262 15.3473 136.9 15.8449C136.542 16.3425 136.36 16.9777 136.36 17.7537C136.36 18.4993 136.532 19.1041 136.878 19.5697C137.243 20.0657 137.735 20.3137 138.35 20.3137C138.903 20.3137 139.345 20.1073 139.681 19.6929C140.006 19.3105 140.165 18.8497 140.165 18.3121Z" fill="white"/>
<path d="M156.317 17.6593C156.317 18.8193 155.985 19.7697 155.319 20.5153C154.622 21.2817 153.699 21.6641 152.543 21.6641C151.432 21.6641 150.547 21.2977 149.885 20.5617C149.226 19.8273 148.896 18.9009 148.896 17.7841C148.896 16.6161 149.235 15.6577 149.917 14.9137C150.598 14.1697 151.514 13.7969 152.67 13.7969C153.781 13.7969 154.676 14.1633 155.351 14.8977C155.994 15.6113 156.317 16.5329 156.317 17.6593ZM154.572 17.7137C154.572 17.0177 154.421 16.4209 154.12 15.9233C153.765 15.3217 153.263 15.0209 152.608 15.0209C151.932 15.0209 151.418 15.3217 151.063 15.9233C150.761 16.4209 150.611 17.0273 150.611 17.7441C150.611 18.4401 150.762 19.0369 151.063 19.5345C151.428 20.1361 151.936 20.4369 152.591 20.4369C153.234 20.4369 153.741 20.1313 154.104 19.5185C154.414 19.0113 154.572 18.4097 154.572 17.7137Z" fill="white"/>
<path d="M165.376 21.4928H163.693V17.1728C163.693 15.8416 163.185 15.176 162.164 15.176C161.664 15.176 161.261 15.3584 160.949 15.7248C160.637 16.0912 160.481 16.5232 160.481 17.0176V21.4912H158.795V16.1056C158.795 15.4432 158.776 14.7248 158.735 13.9472H160.214L160.293 15.1264H160.34C160.537 14.76 160.83 14.4576 161.212 14.216C161.67 13.9344 162.18 13.792 162.741 13.792C163.447 13.792 164.035 14.0192 164.503 14.4752C165.086 15.0336 165.376 15.8672 165.376 16.9744V21.4928Z" fill="white"/>
<path d="M176.713 15.2062H174.858V18.8702C174.858 19.8014 175.187 20.267 175.84 20.267C176.142 20.267 176.393 20.2414 176.59 20.1886L176.634 21.4606C176.301 21.5854 175.864 21.6478 175.325 21.6478C174.66 21.6478 174.142 21.4462 173.768 21.043C173.392 20.6398 173.205 19.9614 173.205 19.0094V15.2062H172.098V13.9502H173.205V12.5678L174.856 12.0718V13.9486H176.711L176.713 15.2062Z" fill="white"/>
<path d="M185.63 21.4929H183.944V17.2049C183.944 15.8529 183.436 15.1761 182.418 15.1761C181.637 15.1761 181.104 15.5681 180.811 16.3521C180.761 16.5169 180.732 16.7185 180.732 16.9553V21.4913H179.049V10.4897H180.732V15.0353H180.764C181.295 14.2081 182.055 13.7953 183.041 13.7953C183.738 13.7953 184.315 14.0225 184.773 14.4785C185.344 15.0465 185.63 15.8913 185.63 17.0081V21.4929Z" fill="white"/>
<path d="M194.829 17.3651C194.829 17.6659 194.807 17.9187 194.767 18.1251H189.715C189.737 18.8707 189.978 19.4387 190.446 19.8323C190.874 20.1843 191.425 20.3603 192.1 20.3603C192.847 20.3603 193.529 20.2419 194.143 20.0035L194.407 21.1683C193.688 21.4787 192.843 21.6339 191.864 21.6339C190.69 21.6339 189.766 21.2899 189.097 20.6019C188.426 19.9139 188.093 18.9907 188.093 17.8323C188.093 16.6947 188.403 15.7475 189.028 14.9923C189.681 14.1859 190.563 13.7827 191.677 13.7827C192.767 13.7827 193.595 14.1859 194.154 14.9923C194.606 15.6323 194.829 16.4243 194.829 17.3651ZM193.222 16.9315C193.235 16.4339 193.124 16.0051 192.896 15.6435C192.603 15.1779 192.158 14.9443 191.555 14.9443C191.005 14.9443 190.557 15.1715 190.215 15.6275C189.935 15.9907 189.769 16.4243 189.715 16.9315H193.222Z" fill="white"/>
</g>
<defs>
<clipPath id="clip0_310_1748">
<rect width="217" height="64" fill="white"/>
</clipPath>
</defs>
</svg>
