<svg width="1440" height="87" viewBox="0 0 1440 87" fill="none" xmlns="http://www.w3.org/2000/svg">
<path opacity="0.5" d="M1438.6 54.1698L1463.66 54.1698L1476.93 29.5472L1463.66 4.92456L1438.6 4.92456L1425.33 29.5472L1438.6 54.1698Z" fill="white"/>
<path opacity="0.5" d="M1391.41 54.1698L1417.95 54.1698L1429.75 29.5471L1417.95 4.92448H1391.41L1378.14 29.5471L1391.41 54.1698ZM1413.53 87H1423.85L1429.75 75.5094L1423.85 65.6604H1413.53L1407.63 75.5094L1413.53 87ZM1478.41 59.0943H1482.83L1484.31 54.1698L1482.83 50.8868H1478.41L1476.93 54.1698L1478.41 59.0943Z" fill="white"/>
<path opacity="0.2" d="M1444.5 70.5849H1456.29L1462.19 59.0943L1456.29 47.6037L1444.5 47.6037L1438.6 59.0943L1444.5 70.5849ZM1440.07 80.434H1441.55L1443.02 78.7924L1441.55 77.1509H1440.07V80.434ZM1466.61 80.434H1473.99L1478.41 72.2264L1473.99 64.0188H1466.61L1462.19 72.2264L1466.61 80.434ZM1471.04 49.2452H1478.41L1482.83 42.6792L1478.41 34.4716H1471.04L1468.09 42.6792L1471.04 49.2452ZM1425.33 62.3773H1429.75L1432.7 59.0943L1429.75 54.1698H1425.33L1423.85 59.0943L1425.33 62.3773ZM1429.75 47.6037H1434.17L1437.12 42.6792L1434.17 39.3962H1429.75L1426.8 42.6792L1429.75 47.6037ZM1450.39 87H1454.82L1457.77 82.0755L1454.82 78.7924H1450.39L1448.92 82.0755L1450.39 87Z" fill="white"/>
<path opacity="0.5" d="M1358.97 59.0944H1354.55L1353.08 54.1698L1354.55 50.8868H1358.97L1360.45 54.1698L1358.97 59.0944Z" fill="white"/>
<path opacity="0.2" d="M1391.41 70.5849H1379.62L1373.72 59.0943L1379.62 47.6037H1391.41L1397.31 59.0943L1391.41 70.5849ZM1395.84 80.434H1394.36V77.1509H1395.84L1397.31 78.7924L1395.84 80.434ZM1370.77 80.434H1361.92L1358.97 72.2264L1361.92 64.0189H1370.77L1373.72 72.2264L1370.77 80.434Z" fill="white"/>
<path opacity="0.5" d="M1364.87 49.2452H1357.5L1354.55 42.6792L1357.5 34.4717H1364.87L1369.3 42.6792L1364.87 49.2452Z" fill="white"/>
<path opacity="0.2" d="M1410.58 62.3774H1406.16L1404.68 59.0944L1406.16 54.1698H1410.58L1413.53 59.0944L1410.58 62.3774ZM1407.63 47.6038H1403.21L1400.26 42.6793L1403.21 39.3963H1407.63L1410.58 42.6793L1407.63 47.6038ZM1385.51 87H1381.09L1379.62 82.0755L1381.09 78.7925H1385.51L1388.46 82.0755L1385.51 87Z" fill="white"/>
<path opacity="0.5" d="M1301.47 54.1698L1328.01 54.1698L1339.81 29.5472L1328.01 4.92456L1301.47 4.92456L1289.67 29.5472L1301.47 54.1698Z" fill="white"/>
<path opacity="0.5" d="M1255.76 54.1698L1280.83 54.1698L1294.1 29.5471L1280.83 4.92448H1255.76L1242.49 29.5471L1255.76 54.1698ZM1277.88 87H1288.2L1294.1 75.5094L1288.2 65.6604H1277.88L1271.98 75.5094L1277.88 87ZM1342.75 59.0943H1345.7L1347.18 54.1698L1345.7 50.8868H1342.75L1339.81 54.1698L1342.75 59.0943Z" fill="white"/>
<path opacity="0.2" d="M1308.84 70.5849H1320.64L1326.54 59.0943L1320.64 47.6037L1308.84 47.6037L1302.94 59.0943L1308.84 70.5849ZM1304.42 80.434H1305.89L1307.37 78.7924L1305.89 77.1509H1304.42L1302.94 78.7924L1304.42 80.434ZM1330.96 80.434H1338.33L1342.75 72.2264L1338.33 64.0188H1330.96L1326.54 72.2264L1330.96 80.434ZM1335.38 49.2452H1342.75L1345.7 42.6792L1342.75 34.4716H1335.38L1330.96 42.6792L1335.38 49.2452ZM1289.67 62.3773H1294.1L1295.57 59.0943L1294.1 54.1698H1289.67L1286.72 59.0943L1289.67 62.3773ZM1292.62 47.6037H1298.52L1299.99 42.6792L1298.52 39.3962H1292.62L1291.15 42.6792L1292.62 47.6037ZM1314.74 87H1319.16L1320.64 82.0755L1319.16 78.7924H1314.74L1313.26 82.0755L1314.74 87Z" fill="white"/>
<path opacity="0.5" d="M1221.85 59.0944H1218.9L1215.95 54.1698L1218.9 50.8868H1221.85L1223.32 54.1698L1221.85 59.0944Z" fill="white"/>
<path opacity="0.2" d="M1255.76 70.5849H1243.96L1238.07 59.0943L1243.96 47.6037H1255.76L1261.66 59.0943L1255.76 70.5849ZM1260.18 80.434H1258.71L1257.23 78.7924L1258.71 77.1509H1260.18L1261.66 78.7924L1260.18 80.434ZM1233.64 80.434H1226.27L1221.85 72.2264L1226.27 64.0189H1233.64L1238.07 72.2264L1233.64 80.434Z" fill="white"/>
<path opacity="0.5" d="M1229.22 49.2452H1221.85L1217.42 42.6792L1221.85 34.4717H1229.22L1233.64 42.6792L1229.22 49.2452Z" fill="white"/>
<path opacity="0.2" d="M1274.93 62.3774H1270.5L1269.03 59.0944L1270.5 54.1698H1274.93L1276.4 59.0944L1274.93 62.3774ZM1271.98 47.6038H1266.08L1264.61 42.6793L1266.08 39.3963H1271.98L1273.45 42.6793L1271.98 47.6038ZM1249.86 87H1245.44L1242.49 82.0755L1245.44 78.7925H1249.86L1251.34 82.0755L1249.86 87Z" fill="white"/>
<path opacity="0.5" d="M1165.81 54.1698L1190.88 54.1698L1204.15 29.5472L1190.88 4.92456L1165.81 4.92456L1152.54 29.5472L1165.81 54.1698Z" fill="white"/>
<path opacity="0.5" d="M1118.63 54.1698L1145.17 54.1698L1158.44 29.5471L1145.17 4.92448H1118.63L1106.83 29.5471L1118.63 54.1698ZM1140.75 87H1152.54L1158.44 75.5094L1152.54 65.6604H1140.75L1134.85 75.5094L1140.75 87ZM1205.63 59.0943H1210.05L1211.52 54.1698L1210.05 50.8868H1205.63L1204.15 54.1698L1205.63 59.0943Z" fill="white"/>
<path opacity="0.2" d="M1173.19 70.5849H1184.98L1190.88 59.0943L1184.98 47.6037L1173.19 47.6037L1165.81 59.0943L1173.19 70.5849ZM1167.29 80.434H1170.24V77.1509H1167.29V80.434ZM1193.83 80.434H1202.68L1205.63 72.2264L1202.68 64.0188H1193.83L1189.41 72.2264L1193.83 80.434ZM1198.25 49.2452H1207.1L1210.05 42.6792L1207.1 34.4716H1198.25L1195.3 42.6792L1198.25 49.2452ZM1154.02 62.3773H1156.97L1159.92 59.0943L1156.97 54.1698H1154.02L1151.07 59.0943L1154.02 62.3773ZM1156.97 47.6037H1161.39L1164.34 42.6792L1161.39 39.3962H1156.97L1154.02 42.6792L1156.97 47.6037ZM1179.08 87H1183.51L1184.98 82.0755L1183.51 78.7924H1179.08L1176.14 82.0755L1179.08 87Z" fill="white"/>
<path opacity="0.5" d="M1086.19 59.0944H1081.77L1080.29 54.1698L1081.77 50.8868H1086.19L1087.67 54.1698L1086.19 59.0944Z" fill="white"/>
<path opacity="0.2" d="M1120.1 70.5849H1106.83L1100.94 59.0943L1106.83 47.6037H1120.1L1126 59.0943L1120.1 70.5849ZM1124.53 80.434H1121.58V77.1509H1124.53V80.434ZM1097.99 80.434H1090.61L1086.19 72.2264L1090.61 64.0189H1097.99L1102.41 72.2264L1097.99 80.434Z" fill="white"/>
<path opacity="0.5" d="M1093.56 49.2452H1086.19L1081.77 42.6792L1086.19 34.4717H1093.56L1096.51 42.6792L1093.56 49.2452Z" fill="white"/>
<path opacity="0.2" d="M1139.27 62.3774H1134.85L1131.9 59.0944L1134.85 54.1698H1139.27L1140.75 59.0944L1139.27 62.3774ZM1134.85 47.6038H1130.43L1127.48 42.6793L1130.43 39.3963H1134.85L1137.8 42.6793L1134.85 47.6038ZM1112.73 87H1109.78L1106.83 82.0755L1109.78 78.7925H1112.73L1115.68 82.0755L1112.73 87Z" fill="white"/>
<path opacity="0.5" d="M1030.16 54.1698L1055.23 54.1698L1068.5 29.5472L1055.23 4.92456L1030.16 4.92456L1016.89 29.5472L1030.16 54.1698Z" fill="white"/>
<path opacity="0.5" d="M982.977 54.1698L1008.04 54.1698L1021.31 29.5471L1008.04 4.92448H982.977L969.706 29.5471L982.977 54.1698ZM1005.09 87H1015.42L1021.31 75.5094L1015.42 65.6604H1005.09L999.196 75.5094L1005.09 87ZM1069.97 59.0943H1072.92L1075.87 54.1698L1072.92 50.8868H1069.97L1068.5 54.1698L1069.97 59.0943Z" fill="white"/>
<path opacity="0.2" d="M1036.06 70.5849H1047.85L1053.75 59.0943L1047.85 47.6037L1036.06 47.6037L1030.16 59.0943L1036.06 70.5849ZM1031.64 80.434H1033.11L1034.58 78.7924L1033.11 77.1509H1031.64V80.434ZM1058.18 80.434H1065.55L1069.97 72.2264L1065.55 64.0188H1058.18L1053.75 72.2264L1058.18 80.434ZM1062.6 49.2452H1069.97L1074.4 42.6792L1069.97 34.4716H1062.6L1059.65 42.6792L1062.6 49.2452ZM1016.89 62.3773H1021.31L1024.26 59.0943L1021.31 54.1698H1016.89L1015.42 59.0943L1016.89 62.3773ZM1019.84 47.6037H1025.74L1027.21 42.6792L1025.74 39.3962H1019.84L1018.36 42.6792L1019.84 47.6037ZM1041.96 87H1046.38L1049.33 82.0755L1046.38 78.7924H1041.96L1040.48 82.0755L1041.96 87Z" fill="white"/>
<path opacity="0.5" d="M949.063 59.0944H946.114L944.639 54.1698L946.114 50.8868H949.063L952.012 54.1698L949.063 59.0944Z" fill="white"/>
<path opacity="0.2" d="M982.977 70.5849H971.181L965.283 59.0943L971.181 47.6037H982.977L988.875 59.0943L982.977 70.5849ZM987.4 80.434H985.926L984.451 78.7924L985.926 77.1509H987.4L988.875 78.7924L987.4 80.434ZM962.334 80.434H953.487L949.063 72.2264L953.487 64.0189H962.334L965.283 72.2264L962.334 80.434Z" fill="white"/>
<path opacity="0.5" d="M956.435 49.2452H949.063L946.114 42.6792L949.063 34.4717H956.435L960.859 42.6792L956.435 49.2452Z" fill="white"/>
<path opacity="0.2" d="M1002.14 62.3774H997.721L996.247 59.0944L997.721 54.1698H1002.14L1005.09 59.0944L1002.14 62.3774ZM999.196 47.6038H994.772L991.823 42.6793L994.772 39.3963H999.196L1002.14 42.6793L999.196 47.6038ZM977.078 87H972.655L971.18 82.0755L972.655 78.7925H977.078L980.027 82.0755L977.078 87Z" fill="white"/>
<path opacity="0.5" d="M893.032 54.1698L919.573 54.1698L931.369 29.5472L919.573 4.92456L893.032 4.92456L879.762 29.5472L893.032 54.1698Z" fill="white"/>
<path opacity="0.5" d="M847.323 54.1698L872.389 54.1698L885.66 29.5471L872.389 4.92448H847.323L834.052 29.5471L847.323 54.1698ZM867.966 87H879.762L885.66 75.5094L879.762 65.6604H867.966L863.542 75.5094L867.966 87ZM934.318 59.0943H937.267L938.742 54.1698L937.267 50.8868H934.318L931.369 54.1698L934.318 59.0943Z" fill="white"/>
<path opacity="0.2" d="M900.405 70.5849H912.201L918.099 59.0943L912.201 47.6037L900.405 47.6037L894.507 59.0943L900.405 70.5849ZM895.981 80.434H897.456L898.93 78.7924L897.456 77.1509H895.981L894.507 78.7924L895.981 80.434ZM921.048 80.434H929.895L934.318 72.2264L929.895 64.0188H921.048L918.099 72.2264L921.048 80.434ZM926.946 49.2452H934.318L937.267 42.6792L934.318 34.4716H926.946L922.522 42.6792L926.946 49.2452ZM881.236 62.3773H885.66L887.134 59.0943L885.66 54.1698H881.236L878.287 59.0943L881.236 62.3773ZM884.185 47.6037H888.609L891.558 42.6792L888.609 39.3962H884.185L881.236 42.6792L884.185 47.6037ZM906.303 87H910.726L912.201 82.0755L910.726 78.7924H906.303L904.828 82.0755L906.303 87Z" fill="white"/>
<path opacity="0.5" d="M813.409 59.0944H810.46L807.511 54.1698L810.46 50.8868H813.409L814.883 54.1698L813.409 59.0944Z" fill="white"/>
<path opacity="0.2" d="M847.323 70.5849H835.527L829.629 59.0943L835.527 47.6037H847.323L853.221 59.0943L847.323 70.5849ZM851.746 80.434H850.272L848.797 78.7924L850.272 77.1509H851.746L853.221 78.7924L851.746 80.434ZM825.205 80.434H817.833L813.409 72.2264L817.833 64.0189H825.205L829.629 72.2264L825.205 80.434Z" fill="white"/>
<path opacity="0.5" d="M820.781 49.2452H813.409L808.985 42.6792L813.409 34.4717H820.781L823.73 42.6792L820.781 49.2452Z" fill="white"/>
<path opacity="0.2" d="M866.491 62.3774H862.067L860.593 59.0944L862.067 54.1698H866.491L867.965 59.0944L866.491 62.3774ZM863.542 47.6038H857.644L856.169 42.6793L857.644 39.3963H863.542L865.016 42.6793L863.542 47.6038ZM841.424 87H837.001L834.052 82.0755L837.001 78.7925H841.424L842.899 82.0755L841.424 87Z" fill="white"/>
<path opacity="0.5" d="M757.378 54.1698L782.444 54.1698L795.715 29.5472L782.444 4.92456L757.378 4.92456L744.107 29.5472L757.378 54.1698Z" fill="white"/>
<path opacity="0.5" d="M710.194 54.1698L736.735 54.1698L748.531 29.5471L736.735 4.92448H710.194L698.398 29.5471L710.194 54.1698ZM732.311 87H744.107L748.531 75.5094L744.107 65.6604H732.311L726.413 75.5094L732.311 87ZM797.189 59.0943H801.613L803.087 54.1698L801.613 50.8868H797.189L795.715 54.1698L797.189 59.0943Z" fill="white"/>
<path opacity="0.2" d="M763.276 70.5849H776.547L782.445 59.0943L776.547 47.6037L763.276 47.6037L757.378 59.0943L763.276 70.5849ZM758.853 80.434H761.802V77.1509H758.853V80.434ZM785.394 80.434H792.766L797.19 72.2264L792.766 64.0188H785.394L780.97 72.2264L785.394 80.434ZM789.817 49.2452H797.19L801.613 42.6792L797.19 34.4716H789.817L786.868 42.6792L789.817 49.2452ZM744.108 62.3773H748.531L751.48 59.0943L748.531 54.1698H744.108L742.633 59.0943L744.108 62.3773ZM748.531 47.6037H752.955L755.904 42.6792L752.955 39.3962H748.531L745.582 42.6792L748.531 47.6037ZM770.649 87H773.598L776.547 82.0755L773.598 78.7924H770.649L767.7 82.0755L770.649 87Z" fill="white"/>
<path opacity="0.5" d="M677.755 59.0944H673.331L671.857 54.1698L673.331 50.8868H677.755L679.229 54.1698L677.755 59.0944Z" fill="white"/>
<path opacity="0.2" d="M710.194 70.5849H698.398L692.5 59.0943L698.398 47.6037H710.194L717.566 59.0943L710.194 70.5849ZM716.092 80.434H713.143V77.1509H716.092V80.434ZM689.551 80.434H680.704L677.755 72.2264L680.704 64.0189H689.551L693.974 72.2264L689.551 80.434Z" fill="white"/>
<path opacity="0.5" d="M685.128 49.2452H676.281L673.332 42.6792L676.281 34.4717H685.128L688.077 42.6792L685.128 49.2452Z" fill="white"/>
<path opacity="0.2" d="M729.363 62.3774H726.414L723.465 59.0944L726.414 54.1698H729.363L732.312 59.0944L729.363 62.3774ZM726.414 47.6038H721.99L719.041 42.6793L721.99 39.3963H726.414L729.363 42.6793L726.414 47.6038ZM704.296 87H699.873L698.398 82.0755L699.873 78.7925H704.296L707.245 82.0755L704.296 87Z" fill="white"/>
<path opacity="0.5" d="M620.25 54.1698L646.791 54.1698L660.061 29.5472L646.791 4.92456L620.25 4.92456L608.454 29.5472L620.25 54.1698Z" fill="white"/>
<path opacity="0.5" d="M574.54 54.1698L599.607 54.1698L612.877 29.5471L599.607 4.92448H574.54L561.27 29.5471L574.54 54.1698ZM596.658 87H606.979L612.877 75.5094L606.979 65.6604H596.658L590.76 75.5094L596.658 87ZM661.536 59.0943H664.485L667.434 54.1698L664.485 50.8868H661.536L660.061 54.1698L661.536 59.0943Z" fill="white"/>
<path opacity="0.2" d="M627.622 70.5849H639.418L645.316 59.0943L639.418 47.6037L627.622 47.6037L621.724 59.0943L627.622 70.5849ZM623.198 80.434H624.673L626.147 78.7924L624.673 77.1509H623.198L621.724 78.7924L623.198 80.434ZM649.739 80.434H657.112L661.535 72.2264L657.112 64.0188H649.739L645.316 72.2264L649.739 80.434ZM654.163 49.2452H661.535L665.959 42.6792L661.535 34.4716H654.163L649.739 42.6792L654.163 49.2452ZM608.453 62.3773H612.877L614.351 59.0943L612.877 54.1698H608.453L606.979 59.0943L608.453 62.3773ZM611.402 47.6037H617.3L618.775 42.6792L617.3 39.3962H611.402L609.928 42.6792L611.402 47.6037ZM633.52 87H637.943L640.892 82.0755L637.943 78.7924H633.52L632.045 82.0755L633.52 87Z" fill="white"/>
<path opacity="0.5" d="M540.626 59.0944H537.677L536.203 54.1698L537.677 50.8868H540.626L543.575 54.1698L540.626 59.0944Z" fill="white"/>
<path opacity="0.2" d="M574.54 70.5849H562.744L556.846 59.0943L562.744 47.6037H574.54L580.438 59.0943L574.54 70.5849ZM578.963 80.434H577.489L576.014 78.7924L577.489 77.1509H578.963L580.438 78.7924L578.963 80.434ZM553.897 80.434H545.05L540.626 72.2264L545.05 64.0189H553.897L556.846 72.2264L553.897 80.434Z" fill="white"/>
<path opacity="0.5" d="M547.999 49.2452H540.626L537.677 42.6792L540.626 34.4717H547.999L552.422 42.6792L547.999 49.2452Z" fill="white"/>
<path opacity="0.2" d="M593.708 62.3774H589.285L587.81 59.0944L589.285 54.1698H593.708L596.657 59.0944L593.708 62.3774ZM590.759 47.6038H584.861L583.387 42.6793L584.861 39.3963H590.759L592.234 42.6793L590.759 47.6038ZM568.642 87H564.218L562.744 82.0755L564.218 78.7925H568.642L570.116 82.0755L568.642 87Z" fill="white"/>
<path opacity="0.5" d="M484.596 54.1698L509.662 54.1698L522.933 29.5472L509.662 4.92456L484.596 4.92456L471.325 29.5472L484.596 54.1698Z" fill="white"/>
<path opacity="0.5" d="M438.886 54.1698L463.953 54.1698L477.223 29.5471L463.953 4.92448H438.886L425.616 29.5471L438.886 54.1698ZM459.529 87H471.325L477.223 75.5094L471.325 65.6604H459.529L453.631 75.5094L459.529 87ZM524.407 59.0943H528.831L530.305 54.1698L528.831 50.8868H524.407L522.933 54.1698L524.407 59.0943Z" fill="white"/>
<path opacity="0.2" d="M491.968 70.5849H503.764L509.662 59.0943L503.764 47.6037L491.968 47.6037L486.07 59.0943L491.968 70.5849ZM487.545 80.434H489.019V77.1509H487.545L486.07 78.7924L487.545 80.434ZM512.611 80.434H521.458L524.407 72.2264L521.458 64.0188H512.611L509.662 72.2264L512.611 80.434ZM518.509 49.2452H525.882L528.831 42.6792L525.882 34.4716H518.509L514.086 42.6792L518.509 49.2452ZM472.8 62.3773H477.223L478.698 59.0943L477.223 54.1698H472.8L469.851 59.0943L472.8 62.3773ZM475.749 47.6037H480.172L483.121 42.6792L480.172 39.3962H475.749L472.8 42.6792L475.749 47.6037ZM497.866 87H502.29L503.764 82.0755L502.29 78.7924H497.866L494.917 82.0755L497.866 87Z" fill="white"/>
<path opacity="0.5" d="M404.972 59.0944H400.549L399.074 54.1698L400.549 50.8868H404.972L406.447 54.1698L404.972 59.0944Z" fill="white"/>
<path opacity="0.2" d="M438.886 70.5849H427.09L421.192 59.0943L427.09 47.6037H438.886L444.784 59.0943L438.886 70.5849ZM443.31 80.434H441.835L440.361 78.7924L441.835 77.1509H443.31V80.434ZM416.769 80.434H409.396L404.973 72.2264L409.396 64.0189H416.769L421.192 72.2264L416.769 80.434Z" fill="white"/>
<path opacity="0.5" d="M412.345 49.2452H404.972L400.549 42.6792L404.972 34.4717H412.345L415.294 42.6792L412.345 49.2452Z" fill="white"/>
<path opacity="0.2" d="M458.054 62.3774H453.631L450.682 59.0944L453.631 54.1698H458.054L459.529 59.0944L458.054 62.3774ZM453.631 47.6038H449.207L446.258 42.6793L449.207 39.3963H453.631L456.58 42.6793L453.631 47.6038ZM432.988 87H428.564L425.615 82.0755L428.564 78.7925H432.988L434.462 82.0755L432.988 87Z" fill="white"/>
<path opacity="0.5" d="M348.941 54.1698L374.008 54.1698L387.278 29.5472L374.008 4.92456L348.941 4.92456L335.671 29.5472L348.941 54.1698Z" fill="white"/>
<path opacity="0.5" d="M301.757 54.1698L328.298 54.1698L340.094 29.5471L328.298 4.92448H301.757L288.487 29.5471L301.757 54.1698ZM323.875 87H335.671L340.094 75.5094L335.671 65.6604H323.875L317.977 75.5094L323.875 87ZM388.753 59.0943H393.176L394.651 54.1698L393.176 50.8868H388.753L387.278 54.1698L388.753 59.0943Z" fill="white"/>
<path opacity="0.2" d="M354.84 70.5849H366.636L374.008 59.0943L366.636 47.6037L354.84 47.6037L348.942 59.0943L354.84 70.5849ZM350.416 80.434H351.891L353.365 78.7924L351.891 77.1509H350.416V80.434ZM376.957 80.434H384.33L388.753 72.2264L384.33 64.0188H376.957L372.534 72.2264L376.957 80.434ZM381.381 49.2452H388.753L393.177 42.6792L388.753 34.4716H381.381L378.432 42.6792L381.381 49.2452ZM335.671 62.3773H340.095L343.044 59.0943L340.095 54.1698H335.671L334.197 59.0943L335.671 62.3773ZM340.095 47.6037H344.518L347.467 42.6792L344.518 39.3962H340.095L337.146 42.6792L340.095 47.6037ZM360.738 87H365.161L368.11 82.0755L365.161 78.7924H360.738L359.263 82.0755L360.738 87Z" fill="white"/>
<path opacity="0.5" d="M269.318 59.0944H264.895L263.42 54.1698L264.895 50.8868H269.318L270.793 54.1698L269.318 59.0944Z" fill="white"/>
<path opacity="0.2" d="M301.757 70.5849H289.961L284.063 59.0943L289.961 47.6037H301.757L307.655 59.0943L301.757 70.5849ZM306.181 80.434H304.706V77.1509H306.181L307.655 78.7924L306.181 80.434ZM281.114 80.434H272.267L269.318 72.2264L272.267 64.0189H281.114L284.063 72.2264L281.114 80.434Z" fill="white"/>
<path opacity="0.5" d="M275.217 49.2452H267.844L264.895 42.6792L267.844 34.4717H275.217L279.64 42.6792L275.217 49.2452Z" fill="white"/>
<path opacity="0.2" d="M320.926 62.3774H316.502L315.028 59.0944L316.502 54.1698H320.926L323.875 59.0944L320.926 62.3774ZM317.977 47.6038H313.553L310.604 42.6793L313.553 39.3963H317.977L320.926 42.6793L317.977 47.6038ZM295.859 87H291.436L289.961 82.0755L291.436 78.7925H295.859L298.808 82.0755L295.859 87Z" fill="white"/>
<path opacity="0.5" d="M211.813 54.1698L238.354 54.1698L250.15 29.5472L238.354 4.92456L211.813 4.92456L200.017 29.5472L211.813 54.1698Z" fill="white"/>
<path opacity="0.5" d="M166.103 54.1698L191.17 54.1698L204.44 29.5471L191.17 4.92448H166.103L152.833 29.5471L166.103 54.1698ZM188.221 87H198.542L204.44 75.5094L198.542 65.6604H188.221L182.323 75.5094L188.221 87ZM253.099 59.0943H256.048L257.522 54.1698L256.048 50.8868H253.099L250.15 54.1698L253.099 59.0943Z" fill="white"/>
<path opacity="0.2" d="M219.185 70.5849H230.981L236.879 59.0943L230.981 47.6037L219.185 47.6037L213.287 59.0943L219.185 70.5849ZM214.762 80.434H216.236L217.711 78.7924L216.236 77.1509H214.762L213.287 78.7924L214.762 80.434ZM241.303 80.434H248.675L253.099 72.2264L248.675 64.0188H241.303L236.879 72.2264L241.303 80.434ZM245.726 49.2452H253.099L256.048 42.6792L253.099 34.4716H245.726L241.303 42.6792L245.726 49.2452ZM200.017 62.3773H204.44L205.915 59.0943L204.44 54.1698H200.017L197.068 59.0943L200.017 62.3773ZM202.966 47.6037H208.864L210.338 42.6792L208.864 39.3962H202.966L201.491 42.6792L202.966 47.6037ZM225.083 87H229.507L230.981 82.0755L229.507 78.7924H225.083L223.609 82.0755L225.083 87Z" fill="white"/>
<path opacity="0.5" d="M132.19 59.0944H129.241L126.292 54.1698L129.241 50.8868H132.19L133.665 54.1698L132.19 59.0944Z" fill="white"/>
<path opacity="0.2" d="M166.103 70.5849H154.307L148.409 59.0943L154.307 47.6037H166.103L172.001 59.0943L166.103 70.5849ZM170.527 80.434H169.052L167.578 78.7924L169.052 77.1509H170.527L172.001 78.7924L170.527 80.434ZM143.986 80.434H136.613L132.19 72.2264L136.613 64.0189H143.986L148.409 72.2264L143.986 80.434Z" fill="white"/>
<path opacity="0.5" d="M139.562 49.2452H132.19L127.766 42.6792L132.19 34.4717H139.562L143.986 42.6792L139.562 49.2452Z" fill="white"/>
<path opacity="0.2" d="M185.272 62.3774H180.849L179.374 59.0944L180.849 54.1698H185.272L186.747 59.0944L185.272 62.3774ZM182.323 47.6038H176.425L174.951 42.6793L176.425 39.3963H182.323L183.798 42.6793L182.323 47.6038ZM160.206 87H155.782L152.833 82.0755L155.782 78.7925H160.206L161.68 82.0755L160.206 87Z" fill="white"/>
<path opacity="0.5" d="M76.1591 54.1698L101.226 54.1698L114.496 29.5472L101.226 4.92456L76.1591 4.92456L62.8886 29.5472L76.1591 54.1698Z" fill="white"/>
<path opacity="0.5" d="M28.9747 54.1698L55.5157 54.1698L68.7862 29.5471L55.5157 4.92448H28.9747L17.1787 29.5471L28.9747 54.1698ZM51.0922 87H62.8882L68.7862 75.5094L62.8882 65.6604H51.0922L45.1942 75.5094L51.0922 87ZM115.97 59.0943H120.394L121.868 54.1698L120.394 50.8868H115.97L114.496 54.1698L115.97 59.0943Z" fill="white"/>
<path opacity="0.2" d="M83.5315 70.5849H95.3275L101.226 59.0943L95.3275 47.6037L83.5315 47.6037L77.6335 59.0943L83.5315 70.5849ZM79.108 80.434H80.5825V77.1509H79.108L77.6335 78.7924L79.108 80.434ZM104.175 80.434H113.022L115.971 72.2264L113.022 64.0188H104.175L99.751 72.2264L104.175 80.434ZM108.598 49.2452H117.445L120.394 42.6792L117.445 34.4716H108.598L105.649 42.6792L108.598 49.2452ZM64.363 62.3773H67.312L70.261 59.0943L67.312 54.1698H64.363L61.414 59.0943L64.363 62.3773ZM67.312 47.6037H71.7355L74.6845 42.6792L71.7355 39.3962H67.312L64.363 42.6792L67.312 47.6037ZM89.4295 87H93.853L95.3275 82.0755L93.853 78.7924H89.4295L86.4805 82.0755L89.4295 87Z" fill="white"/>
<path opacity="0.2" d="M30.4497 70.5849H17.1792L11.2812 59.0943L17.1792 47.6037H30.4497L36.3477 59.0943L30.4497 70.5849ZM34.8732 80.434H31.9242V77.1509H34.8732V80.434ZM8.33216 80.434H0.95966L-3.46384 72.2264L0.95966 64.0189H8.33216L12.7557 72.2264L8.33216 80.434Z" fill="white"/>
<path opacity="0.5" d="M3.90842 49.2452H-3.46408L-7.88758 42.6792L-3.46408 34.4717H3.90842L6.85742 42.6792L3.90842 49.2452Z" fill="white"/>
<path opacity="0.2" d="M49.6183 62.3774H45.1948L42.2458 59.0944L45.1948 54.1698H49.6183L51.0928 59.0944L49.6183 62.3774ZM45.1948 47.6038H40.7713L37.8223 42.6793L40.7713 39.3963H45.1948L48.1438 42.6793L45.1948 47.6038ZM23.0773 87H20.1283L17.1793 82.0755L20.1283 78.7925H23.0773L26.0263 82.0755L23.0773 87Z" fill="white"/>
<path d="M-767.255 21.3396L-764.306 26.2642L-739.24 26.2642L-731.867 13.1321L-724.494 26.2642L-683.208 26.2642L-677.31 13.1321L-669.938 26.2642L-643.397 26.2642L-636.024 11.4906L-628.652 26.2642L-602.111 26.2642L-596.213 13.1321L-588.84 26.2642L-544.605 26.2642L-537.233 13.1321L-531.335 26.2642L-504.794 26.2642L-498.896 13.1321L-491.523 26.2642L-466.457 26.2642L-459.084 13.1321L-453.186 26.2642L-406.002 26.2642L-398.63 13.1321L-391.257 26.2642L-366.191 26.2642L-360.293 16.4151L-355.869 26.2642L-330.803 26.2642L-323.43 13.1321L-316.058 26.2642L-265.925 26.2642L-260.027 13.1321L-252.654 26.2642H-227.588L-223.164 18.0566L-220.215 26.2642L-193.674 26.2642L-187.776 13.1321L-180.404 26.2642L-153.863 26.2642L-127.322 26.2642L-119.949 13.1321L-114.052 26.2642L-87.5105 26.2642L-86.0359 21.3396L-83.0869 26.2642L-58.0205 26.2642L-50.6479 13.1321L-44.75 26.2642L6.85767 26.2642L14.23 13.1321L21.6025 26.2642L46.6692 26.2642L49.6182 19.6981L52.5671 26.2642L77.6335 26.2642L85.0061 13.1321L92.3787 26.2642L133.665 26.2642L141.037 13.1321L146.935 26.2642L173.476 26.2642L180.849 11.4906L188.221 26.2642L214.762 26.2642L222.135 13.1321L228.033 26.2642L272.268 26.2642L279.64 13.1321L287.013 26.2642L312.079 26.2642L317.977 13.1321L325.35 26.2642H350.416L357.789 13.1321L365.161 26.2642L403.498 26.2642L409.396 13.1321L416.769 26.2642L441.835 26.2642L452.157 8.20754L461.004 26.2642L487.545 26.2642L493.443 13.1321L500.815 26.2642L542.101 26.2642L549.474 13.1321L555.372 26.2642L581.913 26.2642L589.285 11.4906L598.132 26.2642L623.199 26.2642L630.571 13.1321L636.469 26.2642L673.332 26.2642L680.704 13.1321L688.077 26.2642L713.143 26.2642L723.465 6.56603L733.786 26.2642H758.853L766.225 13.1321L773.598 26.2642L814.884 26.2642L822.256 13.1321L828.154 26.2642L854.695 26.2642L862.068 11.4906L869.44 26.2642L895.981 26.2642L901.879 13.1321L909.252 26.2642L946.114 26.2642L953.487 13.1321L959.385 26.2642L985.926 26.2642L996.247 6.56603L1006.57 26.2642L1031.64 26.2642L1039.01 13.1321L1044.91 26.2642L1081.77 26.2642L1089.14 13.1321L1096.51 26.2642L1121.58 26.2642L1131.9 6.56603L1142.22 26.2642L1167.29 26.2642L1174.66 13.1321L1182.03 26.2642L1226.27 26.2642L1233.64 13.1321L1239.54 26.2642L1266.08 26.2642L1271.98 13.1321L1277.88 26.2642L1304.42 26.2642L1310.32 13.1321L1317.69 26.2642L1353.08 26.2642L1360.45 13.1321L1366.35 26.2642L1392.89 26.2642L1403.21 4.92452L1415.01 26.2642L1440.07 26.2642L1447.44 13.1321L1454.82 26.2642L1496.1 26.2642L1502 13.1321L1509.37 26.2642L1535.91 26.2642L1543.29 11.4906L1550.66 26.2642L1577.2 26.2642L1583.1 13.1321L1590.47 26.2642L1631.76 26.2642L1639.13 13.1321L1645.03 26.2642L1671.57 26.2642L1678.94 11.4906L1687.79 26.2642L1712.85 26.2642L1720.23 13.1321L1726.12 26.2642L1762.99 26.2642L1770.36 13.1321L1777.73 26.2642H1802.8L1813.12 6.56603L1823.44 26.2642L1848.51 26.2642L1855.88 13.1321L1863.25 26.2642L1900.12 26.2642L1906.01 13.1321L1913.39 26.2642L1938.45 26.2642L1948.77 6.56603L1959.1 26.2642L1985.64 26.2642L1991.53 13.1321L1998.91 26.2642L2035.77 26.2642L2043.14 13.1321L2049.04 26.2642L2075.58 26.2642L2085.9 6.56603L2096.22 26.2642H2121.29L2128.66 13.1321L2134.56 26.2642L2161.1 26.2642L2167 14.7736V-1.52588e-05L-782 -1.52588e-05V26.2642L-767.255 21.3396Z" fill="white"/>
</svg>
