<svg width="216" height="64" viewBox="0 0 216 64" fill="none" xmlns="http://www.w3.org/2000/svg">
<g clip-path="url(#clip0_310_1749)">
<path d="M207.997 64.0003H8.00376C3.60381 64.0003 0.00390625 60.4004 0.00390625 56.0004V8.00132C0.00390625 3.60137 3.60381 0.00146484 8.00376 0.00146484H207.997C212.397 0.00146484 215.997 3.60137 215.997 8.00132V56.0004C215.997 60.4004 212.397 64.0003 207.997 64.0003Z" fill="black"/>
<path d="M171.097 48.0004H174.083V27.9974H171.097V48.0004ZM197.988 35.2035L194.566 43.8752H194.464L190.912 35.2035H187.696L193.024 47.3236L189.986 54.0658H193.099L201.309 35.2041L197.988 35.2035ZM181.056 45.7283C180.08 45.7283 178.716 45.2388 178.716 44.0295C178.716 42.4857 180.415 41.8939 181.88 41.8939C183.192 41.8939 183.812 42.1764 184.608 42.5627C184.376 44.4157 182.781 45.7283 181.056 45.7283ZM181.418 34.766C179.256 34.766 177.018 35.7184 176.092 37.8285L178.741 38.9347C179.308 37.8285 180.362 37.4686 181.469 37.4686C183.013 37.4686 184.583 38.3941 184.608 40.0416V40.2472C184.067 39.9384 182.909 39.4754 181.495 39.4754C178.637 39.4754 175.73 41.0446 175.73 43.9783C175.73 46.6546 178.072 48.3788 180.696 48.3788C182.703 48.3788 183.811 47.4782 184.504 46.4227H184.608V47.9676H187.491V40.2984C187.491 36.7472 184.839 34.766 181.418 34.766ZM162.967 37.6384H158.72V30.7824H162.967C165.199 30.7824 166.466 32.63 166.466 34.2104C166.466 35.7604 165.199 37.6384 162.967 37.6384ZM162.89 27.9979H155.736V48.0009H158.72V40.4229H162.89C166.199 40.4229 169.451 38.0279 169.451 34.2111C169.451 30.3949 166.199 27.9979 162.89 27.9979ZM123.881 45.7316C121.819 45.7316 120.092 44.0041 120.092 41.6336C120.092 39.2355 121.819 37.4836 123.881 37.4836C125.917 37.4836 127.516 39.2356 127.516 41.6336C127.516 44.0041 125.917 45.7316 123.881 45.7316ZM127.309 36.3232H127.206C126.536 35.5243 125.247 34.8026 123.624 34.8026C120.221 34.8026 117.102 37.7931 117.102 41.6336C117.102 45.448 120.221 48.4122 123.624 48.4122C125.247 48.4122 126.536 47.6903 127.206 46.866H127.309V47.8447C127.309 50.4491 125.917 51.8403 123.675 51.8403C121.845 51.8403 120.711 50.5259 120.247 49.4177L117.644 50.5002C118.391 52.3038 120.375 54.5214 123.675 54.5214C127.181 54.5214 130.145 52.4588 130.145 47.4321V35.2148H127.309L127.309 36.3232ZM132.208 47.9998H135.197V27.9968H132.208V47.9998ZM139.605 41.4012C139.528 38.7718 141.642 37.4318 143.162 37.4318C144.348 37.4318 145.353 38.0249 145.689 38.8749L139.605 41.4012ZM148.884 39.1324C148.317 37.6125 146.59 34.8026 143.059 34.8026C139.553 34.8026 136.64 37.5605 136.64 41.6075C136.64 45.4224 139.528 48.4123 143.393 48.4123C146.512 48.4123 148.317 46.5055 149.065 45.3967L146.745 43.8499C145.972 44.9843 144.915 45.7318 143.393 45.7318C141.874 45.7318 140.79 45.0356 140.095 43.6694L149.193 39.9063L148.884 39.1324ZM76.3927 36.8906V39.7774H83.3005C83.0943 41.4013 82.553 42.5868 81.728 43.4118C80.7225 44.4167 79.1501 45.5255 76.3926 45.5255C72.1394 45.5255 68.8145 42.0974 68.8145 37.8443C68.8145 33.5913 72.1394 30.1627 76.3926 30.1627C78.6867 30.1627 80.3618 31.0651 81.5992 32.2251L83.6361 30.1883C81.9085 28.5389 79.6148 27.2759 76.3926 27.2759C70.5663 27.2759 65.6689 32.0188 65.6689 37.8443C65.6689 43.6693 70.5663 48.4123 76.3926 48.4123C79.5368 48.4123 81.9086 47.3811 83.7642 45.4481C85.6717 43.5405 86.2648 40.86 86.2648 38.6944C86.2648 38.025 86.2128 37.4063 86.1098 36.8906H76.3927ZM94.1192 45.7316C92.0566 45.7316 90.278 44.0304 90.278 41.6075C90.278 39.1587 92.0566 37.4837 94.1192 37.4837C96.1809 37.4837 97.9596 39.1587 97.9596 41.6075C97.9596 44.0304 96.1809 45.7316 94.1192 45.7316ZM94.1192 34.8026C90.3548 34.8026 87.2879 37.6636 87.2879 41.6075C87.2879 45.5255 90.3548 48.4123 94.1192 48.4123C97.8822 48.4123 100.95 45.5255 100.95 41.6075C100.95 37.6636 97.8822 34.8026 94.1192 34.8026ZM109.02 45.7316C106.959 45.7316 105.179 44.0304 105.179 41.6075C105.179 39.1587 106.959 37.4837 109.02 37.4837C111.082 37.4837 112.86 39.1587 112.86 41.6075C112.86 44.0304 111.082 45.7316 109.02 45.7316ZM109.02 34.8026C105.257 34.8026 102.19 37.6636 102.19 41.6075C102.19 45.5255 105.257 48.4123 109.02 48.4123C112.784 48.4123 115.851 45.5255 115.851 41.6075C115.851 37.6636 112.784 34.8026 109.02 34.8026Z" fill="white"/>
<path d="M33.1472 31.0793L16.1143 49.1586C16.1149 49.1624 16.1162 49.1655 16.1168 49.1693C16.6392 51.1325 18.4323 52.5781 20.5604 52.5781C21.4111 52.5781 22.2098 52.3481 22.8948 51.9443L22.9492 51.9124L42.1229 40.8484L33.1472 31.0793Z" fill="#EB3131"/>
<path d="M50.3796 28.0004L50.3633 27.9893L42.0854 23.1904L32.7593 31.4892L42.1178 40.8465L50.352 36.0954C51.7956 35.3161 52.7756 33.7942 52.7756 32.0392C52.7756 30.2968 51.8089 28.7823 50.3796 28.0004Z" fill="#F6B60B"/>
<path d="M16.1118 14.8438C16.0094 15.2213 15.9556 15.6169 15.9556 16.0276V47.9754C15.9556 48.3853 16.0088 48.7822 16.1124 49.1584L33.7333 31.5411L16.1118 14.8438Z" fill="#5778C5"/>
<path d="M33.2725 32.0017L42.0893 23.1875L22.9371 12.0834C22.241 11.6664 21.4285 11.4258 20.5591 11.4258C18.431 11.4258 16.6354 12.874 16.1129 14.8394C16.1123 14.8414 16.1123 14.8427 16.1123 14.8444L33.2725 32.0017Z" fill="#3BAD49"/>
<path d="M75.8325 15.6503H71.1651V16.8053H74.6626C74.5676 17.7479 74.1925 18.4879 73.5601 19.0253C72.9276 19.5629 72.12 19.8329 71.1651 19.8329C70.1176 19.8329 69.2301 19.4679 68.5027 18.743C67.7901 18.003 67.4277 17.0879 67.4277 15.9855C67.4277 14.8831 67.7901 13.968 68.5027 13.2281C69.2301 12.5031 70.1176 12.1406 71.1651 12.1406C71.7027 12.1406 72.2151 12.2331 72.685 12.4356C73.1551 12.638 73.5325 12.9206 73.8275 13.2831L74.715 12.3956C74.3125 11.938 73.8026 11.5881 73.1699 11.3331C72.5375 11.0781 71.8775 10.9557 71.1649 10.9557C69.7675 10.9557 68.5827 11.4406 67.6151 12.4081C66.6476 13.378 66.1626 14.5731 66.1626 15.9855C66.1626 17.3979 66.6475 18.5955 67.6151 19.5631C68.5826 20.5304 69.7675 21.0156 71.1649 21.0156C72.6324 21.0156 73.8024 20.5455 74.7024 19.5904C75.4949 18.7956 75.8999 17.7206 75.8999 16.3756C75.8999 16.1481 75.8725 15.9053 75.8325 15.6503ZM77.6407 11.1704V20.8004H83.2629V19.6178H78.8781V16.563H82.8331V15.408H78.8781V12.3555H83.2629V11.1704L77.6407 11.1704ZM91.1467 12.3555V11.1704H84.5293V12.3555H87.2194V20.8004H88.4568V12.3555H91.1467ZM97.1378 11.1704H95.9003V20.8004H97.1378V11.1704ZM105.306 12.3555V11.1704H98.6884V12.3555H101.378V20.8004H102.616V12.3555H105.306ZM117.793 12.4231C116.838 11.4405 115.668 10.9556 114.271 10.9556C112.871 10.9556 111.701 11.4405 110.746 12.4081C109.791 13.3631 109.321 14.5605 109.321 15.9854C109.321 17.4103 109.791 18.6079 110.746 19.563C111.701 20.5303 112.871 21.0155 114.271 21.0155C115.655 21.0155 116.838 20.5304 117.793 19.563C118.748 18.608 119.218 17.4104 119.218 15.9854C119.218 14.573 118.748 13.3779 117.793 12.4231ZM111.633 13.228C112.346 12.503 113.221 12.1405 114.271 12.1405C115.318 12.1405 116.193 12.5031 116.893 13.228C117.605 13.9405 117.955 14.8703 117.955 15.9854C117.955 17.103 117.605 18.0303 116.893 18.7429C116.193 19.4678 115.318 19.8328 114.271 19.8328C113.221 19.8328 112.346 19.4678 111.633 18.7429C110.936 18.0154 110.586 17.1029 110.586 15.9854C110.586 14.8704 110.936 13.9554 111.633 13.228ZM122.158 14.803L122.105 12.9454H122.158L127.053 20.8003H128.345V11.1703H127.108V16.8052L127.16 18.6628H127.108L122.428 11.1703H120.92V20.8003H122.158V14.803Z" fill="white" stroke="white" stroke-width="0.319994" stroke-miterlimit="10"/>
</g>
<defs>
<clipPath id="clip0_310_1749">
<rect width="216.001" height="64" fill="white"/>
</clipPath>
</defs>
</svg>
